# xmcd CD database file
#
# Track frame offsets:
#	150
#	11208
#	23099
#	37927
#	47273
#	57192
#	71481
#	81984
#	98176
#
# Disc length: 1642 seconds
#
# Revision: 0
# Processed by: cddbd v1.5PL3 Copyright (c) Steve Scherf et al.
# Submitted via: CDex 1.50
#
DISCID=67066809
DTITLE=Violeta Rivas - Salsa Ultravioleta
DYEAR=1900
DGENRE=Salsa
TTITLE0=La farolera
TTITLE1=Cancion del jacaranda
TTITLE2=La paloma blanca
TTITLE3=Hockey pockey
TTITLE4=Pinocho
TTITLE5=El rino del reves
TTITLE6=Mambru
TTITLE7=Manuelita
TTITLE8=Popurri
EXTD=
EXTT0=
EXTT1=
EXTT2=
EXTT3=
EXTT4=
EXTT5=
EXTT6=
EXTT7=
EXTT8=
PLAYORDER=
